<?xml version="1.0" encoding="UTF-8"?>
<!DOCTYPE svg PUBLIC "-//W3C//DTD SVG 1.1//EN" "http://www.w3.org/Graphics/SVG/1.1/DTD/svg11.dtd">
<!-- Creator: CorelDRAW -->
<svg xmlns="http://www.w3.org/2000/svg" xml:space="preserve" width="512px" height="512px" version="1.1" style="shape-rendering:geometricPrecision; text-rendering:geometricPrecision; image-rendering:optimizeQuality; fill-rule:evenodd; clip-rule:evenodd"
viewBox="0 0 512 512"
 xmlns:xlink="http://www.w3.org/1999/xlink">
 <defs>
  <style type="text/css">
   <![CDATA[
    .fil3 {fill:#414340}
    .fil1 {fill:#B3B6B9}
    .fil0 {fill:#DEDFE1}
    .fil2 {fill:#F8A507}
    .fil4 {fill:#FAFCFF}
   ]]>
  </style>
 </defs>
 <g id="Layer_x0020_1">
  <metadata id="CorelCorpID_0Corel-Layer"/>
  <path class="fil0" d="M396 512l-280 0c-19,0 -34,-17 -34,-38l0 -4c0,-1 1,-3 3,-4l0 -109c-2,-1 -3,-2 -3,-4l0 -315c0,-21 15,-38 34,-38l209 0c3,0 5,2 5,5 0,1 0,2 -1,3l92 103c1,-1 2,-2 4,-2 3,0 5,2 5,5l0 239c0,2 -1,4 -4,5l0 70 0 38c3,0 4,2 4,4l0 4c0,21 -15,38 -34,38z"/>
  <path class="fil1" d="M83 483c-1,-3 -1,-6 -1,-9l0 -4c0,-1 1,-3 3,-4l0 -109c-2,-1 -3,-2 -3,-4l0 -13c2,0 4,0 6,0l336 0c2,0 4,0 6,0l0 13c0,2 -1,4 -4,5l0 70 0 38c3,0 4,2 4,4l0 4c0,3 0,6 -1,9 -1,0 -3,0 -5,0l-336 0c-2,0 -4,0 -5,0z"/>
  <path class="fil1" d="M313 0l12 0c3,0 5,2 5,5 0,1 0,2 -1,3l92 103c1,-1 2,-2 4,-2 3,0 5,2 5,5l0 12c-1,1 -3,1 -5,1 0,0 0,0 0,0l-86 0c-15,0 -27,-13 -27,-29l0 -93c0,-2 0,-3 1,-5z"/>
  <path class="fil2" d="M425 119c0,0 0,0 0,0l-86 0c-10,0 -19,-9 -19,-21l0 -93c0,-2 1,-4 3,-5 2,0 4,0 6,2l100 108c1,1 1,2 1,4 0,3 -2,5 -5,5z"/>
  <path class="fil2" d="M424 475l-336 0c-29,0 -52,-23 -52,-51l0 -24c0,-29 23,-52 52,-52l336 0c29,0 52,23 52,52l0 24c0,28 -23,51 -52,51z"/>
  <path class="fil3" d="M198 156l-80 0c-2,0 -5,-3 -5,-5 0,-3 3,-5 5,-5l80 0c3,0 5,2 5,5 0,2 -2,5 -5,5z"/>
  <path class="fil3" d="M379 189l-261 0c-2,0 -5,-3 -5,-5 0,-3 3,-5 5,-5l261 0c3,0 5,2 5,5 0,2 -2,5 -5,5z"/>
  <path class="fil3" d="M379 222l-261 0c-2,0 -5,-2 -5,-5 0,-3 3,-5 5,-5l261 0c3,0 5,2 5,5 0,3 -2,5 -5,5z"/>
  <path class="fil3" d="M296 255l-178 0c-2,0 -5,-2 -5,-5 0,-3 3,-5 5,-5l178 0c3,0 5,2 5,5 0,3 -2,5 -5,5z"/>
  <path class="fil3" d="M296 288l-178 0c-2,0 -5,-2 -5,-5 0,-3 3,-5 5,-5l178 0c3,0 5,2 5,5 0,3 -2,5 -5,5z"/>
  <path class="fil3" d="M349 321l-231 0c-2,0 -5,-2 -5,-5 0,-3 3,-5 5,-5l231 0c3,0 5,2 5,5 0,3 -2,5 -5,5z"/>
  <path class="fil4" d="M168 378c-3,0 -5,-2 -5,-5 0,-3 2,-5 4,-5 1,0 2,0 49,0 2,0 5,2 5,5 0,2 -3,5 -5,5 -18,0 -46,0 -48,0 0,0 0,0 0,0z"/>
  <path class="fil4" d="M192 456c-3,0 -5,-3 -5,-5l0 -78c0,-3 2,-5 5,-5 3,0 5,2 5,5l0 78c0,2 -2,5 -5,5z"/>
  <path class="fil4" d="M236 455c-1,0 -2,-1 -2,-1 -3,-1 -4,-4 -2,-7l40 -76c1,-2 4,-3 6,-2 3,2 4,5 2,7l-40 76c0,2 -2,3 -4,3z"/>
  <path class="fil4" d="M274 456c-2,0 -4,-1 -5,-3l-35 -78c-2,-3 0,-6 2,-7 3,-1 6,0 7,3l35 78c2,2 0,5 -2,6 -1,0 -1,1 -2,1z"/>
  <path class="fil4" d="M296 378c-2,0 -4,-2 -5,-5 0,-3 2,-5 5,-5 0,0 1,0 48,0 3,0 5,2 5,5 0,2 -2,5 -5,5 0,0 0,0 0,0 -18,0 -45,0 -47,0 0,0 -1,0 -1,0z"/>
  <path class="fil4" d="M320 456c-3,0 -5,-3 -5,-5l0 -78c0,-3 2,-5 5,-5 3,0 5,2 5,5l0 78c0,2 -2,5 -5,5z"/>
 </g>
</svg>
